%TF.GenerationSoftware,KiCad,Pcbnew,8.0.6*%
%TF.CreationDate,2025-01-01T08:23:19-05:00*%
%TF.ProjectId,ge-psu,67652d70-7375-42e6-9b69-6361645f7063,rev?*%
%TF.SameCoordinates,Original*%
%TF.FileFunction,Soldermask,Bot*%
%TF.FilePolarity,Negative*%
%FSLAX46Y46*%
G04 Gerber Fmt 4.6, Leading zero omitted, Abs format (unit mm)*
G04 Created by KiCad (PCBNEW 8.0.6) date 2025-01-01 08:23:19*
%MOMM*%
%LPD*%
G01*
G04 APERTURE LIST*
G04 Aperture macros list*
%AMRoundRect*
0 Rectangle with rounded corners*
0 $1 Rounding radius*
0 $2 $3 $4 $5 $6 $7 $8 $9 X,Y pos of 4 corners*
0 Add a 4 corners polygon primitive as box body*
4,1,4,$2,$3,$4,$5,$6,$7,$8,$9,$2,$3,0*
0 Add four circle primitives for the rounded corners*
1,1,$1+$1,$2,$3*
1,1,$1+$1,$4,$5*
1,1,$1+$1,$6,$7*
1,1,$1+$1,$8,$9*
0 Add four rect primitives between the rounded corners*
20,1,$1+$1,$2,$3,$4,$5,0*
20,1,$1+$1,$4,$5,$6,$7,0*
20,1,$1+$1,$6,$7,$8,$9,0*
20,1,$1+$1,$8,$9,$2,$3,0*%
G04 Aperture macros list end*
%ADD10C,1.001600*%
%ADD11C,13.101600*%
%ADD12RoundRect,0.050800X-0.850000X0.850000X-0.850000X-0.850000X0.850000X-0.850000X0.850000X0.850000X0*%
%ADD13O,1.801600X1.801600*%
%ADD14C,4.191000*%
%ADD15RoundRect,0.102000X-0.895350X-0.895350X0.895350X-0.895350X0.895350X0.895350X-0.895350X0.895350X0*%
%ADD16C,1.994700*%
%ADD17RoundRect,0.050800X0.850000X-0.850000X0.850000X0.850000X-0.850000X0.850000X-0.850000X-0.850000X0*%
G04 APERTURE END LIST*
D10*
%TO.C,H1*%
X164143854Y-63862854D03*
X165571708Y-60415708D03*
X165571708Y-67310000D03*
X169018854Y-58987854D03*
D11*
X169018854Y-63862854D03*
D10*
X169018854Y-68737854D03*
X172466000Y-60415708D03*
X172466000Y-67310000D03*
X173893854Y-63862854D03*
%TD*%
D12*
%TO.C,J7*%
X137287000Y-69088000D03*
D13*
X134747000Y-69088000D03*
X132207000Y-69088000D03*
X129667000Y-69088000D03*
X127127000Y-69088000D03*
X124587000Y-69088000D03*
X122047000Y-69088000D03*
X119507000Y-69088000D03*
%TD*%
D14*
%TO.C,J1*%
X122020000Y-81860000D03*
X171550000Y-81860000D03*
D15*
X140435000Y-84400000D03*
D16*
X137895000Y-84400000D03*
X135355000Y-84400000D03*
X132815000Y-84400000D03*
X130275000Y-84400000D03*
X127735000Y-84400000D03*
X140435000Y-81860000D03*
X137895000Y-81860000D03*
X135355000Y-81860000D03*
X132815000Y-81860000D03*
X130275000Y-81860000D03*
X127735000Y-81860000D03*
X140435000Y-79320000D03*
X137895000Y-79320000D03*
X135355000Y-79320000D03*
X132815000Y-79320000D03*
X130275000Y-79320000D03*
X127735000Y-79320000D03*
X140435000Y-76780000D03*
X137895000Y-76780000D03*
X135355000Y-76780000D03*
X132815000Y-76780000D03*
X130275000Y-76780000D03*
X127735000Y-76780000D03*
X165200000Y-76780000D03*
X165200000Y-79320000D03*
X165200000Y-81860000D03*
X165200000Y-84400000D03*
X162660000Y-76780000D03*
X162660000Y-79320000D03*
X162660000Y-81860000D03*
X162660000Y-84400000D03*
X158850000Y-76780000D03*
X158850000Y-79320000D03*
X158850000Y-81860000D03*
X158850000Y-84400000D03*
X156310000Y-76780000D03*
X156310000Y-79320000D03*
X156310000Y-81860000D03*
X156310000Y-84400000D03*
X152500000Y-76780000D03*
X152500000Y-79320000D03*
X152500000Y-81860000D03*
X152500000Y-84400000D03*
X149960000Y-76780000D03*
X149960000Y-79320000D03*
X149960000Y-81860000D03*
X149960000Y-84400000D03*
X146150000Y-76780000D03*
X146150000Y-79320000D03*
X146150000Y-81860000D03*
X146150000Y-84400000D03*
X143610000Y-76780000D03*
X143610000Y-79320000D03*
X143610000Y-81860000D03*
X143610000Y-84400000D03*
%TD*%
D17*
%TO.C,J3*%
X136652000Y-58420000D03*
D13*
X139192000Y-58420000D03*
%TD*%
D12*
%TO.C,J4*%
X124445000Y-64008000D03*
D13*
X121905000Y-64008000D03*
X119365000Y-64008000D03*
%TD*%
D10*
%TO.C,H2*%
X146109854Y-63862854D03*
X147537708Y-60415708D03*
X147537708Y-67310000D03*
X150984854Y-58987854D03*
D11*
X150984854Y-63862854D03*
D10*
X150984854Y-68737854D03*
X154432000Y-60415708D03*
X154432000Y-67310000D03*
X155859854Y-63862854D03*
%TD*%
D17*
%TO.C,J6*%
X118999000Y-58496200D03*
D13*
X121539000Y-58496200D03*
%TD*%
D17*
%TO.C,J2*%
X128651000Y-58420000D03*
D13*
X131191000Y-58420000D03*
%TD*%
D17*
%TO.C,J5*%
X130556000Y-64033400D03*
D13*
X133096000Y-64033400D03*
X135636000Y-64033400D03*
%TD*%
M02*
