%TF.GenerationSoftware,KiCad,Pcbnew,8.0.6*%
%TF.CreationDate,2025-01-01T08:23:19-05:00*%
%TF.ProjectId,ge-psu,67652d70-7375-42e6-9b69-6361645f7063,rev?*%
%TF.SameCoordinates,Original*%
%TF.FileFunction,Legend,Top*%
%TF.FilePolarity,Positive*%
%FSLAX46Y46*%
G04 Gerber Fmt 4.6, Leading zero omitted, Abs format (unit mm)*
G04 Created by KiCad (PCBNEW 8.0.6) date 2025-01-01 08:23:19*
%MOMM*%
%LPD*%
G01*
G04 APERTURE LIST*
%ADD10C,0.300000*%
%ADD11C,0.193548*%
%ADD12C,0.150000*%
%ADD13C,0.120000*%
%ADD14C,0.127000*%
%ADD15C,0.200000*%
G04 APERTURE END LIST*
D10*
X162900225Y-69928828D02*
X163400225Y-71428828D01*
X163400225Y-71428828D02*
X163900225Y-69928828D01*
X164400224Y-70857400D02*
X165543082Y-70857400D01*
X164971653Y-71428828D02*
X164971653Y-70285971D01*
D11*
X130886534Y-55568818D02*
X130810334Y-55530718D01*
X130810334Y-55530718D02*
X130696034Y-55530718D01*
X130696034Y-55530718D02*
X130581734Y-55568818D01*
X130581734Y-55568818D02*
X130505534Y-55645018D01*
X130505534Y-55645018D02*
X130467434Y-55721218D01*
X130467434Y-55721218D02*
X130429334Y-55873618D01*
X130429334Y-55873618D02*
X130429334Y-55987918D01*
X130429334Y-55987918D02*
X130467434Y-56140318D01*
X130467434Y-56140318D02*
X130505534Y-56216518D01*
X130505534Y-56216518D02*
X130581734Y-56292718D01*
X130581734Y-56292718D02*
X130696034Y-56330818D01*
X130696034Y-56330818D02*
X130772234Y-56330818D01*
X130772234Y-56330818D02*
X130886534Y-56292718D01*
X130886534Y-56292718D02*
X130924634Y-56254618D01*
X130924634Y-56254618D02*
X130924634Y-55987918D01*
X130924634Y-55987918D02*
X130772234Y-55987918D01*
X131267534Y-56330818D02*
X131267534Y-55530718D01*
X131267534Y-55530718D02*
X131724734Y-56330818D01*
X131724734Y-56330818D02*
X131724734Y-55530718D01*
X132105734Y-56330818D02*
X132105734Y-55530718D01*
X132105734Y-55530718D02*
X132296234Y-55530718D01*
X132296234Y-55530718D02*
X132410534Y-55568818D01*
X132410534Y-55568818D02*
X132486734Y-55645018D01*
X132486734Y-55645018D02*
X132524834Y-55721218D01*
X132524834Y-55721218D02*
X132562934Y-55873618D01*
X132562934Y-55873618D02*
X132562934Y-55987918D01*
X132562934Y-55987918D02*
X132524834Y-56140318D01*
X132524834Y-56140318D02*
X132486734Y-56216518D01*
X132486734Y-56216518D02*
X132410534Y-56292718D01*
X132410534Y-56292718D02*
X132296234Y-56330818D01*
X132296234Y-56330818D02*
X132105734Y-56330818D01*
X118161134Y-55568818D02*
X118084934Y-55530718D01*
X118084934Y-55530718D02*
X117970634Y-55530718D01*
X117970634Y-55530718D02*
X117856334Y-55568818D01*
X117856334Y-55568818D02*
X117780134Y-55645018D01*
X117780134Y-55645018D02*
X117742034Y-55721218D01*
X117742034Y-55721218D02*
X117703934Y-55873618D01*
X117703934Y-55873618D02*
X117703934Y-55987918D01*
X117703934Y-55987918D02*
X117742034Y-56140318D01*
X117742034Y-56140318D02*
X117780134Y-56216518D01*
X117780134Y-56216518D02*
X117856334Y-56292718D01*
X117856334Y-56292718D02*
X117970634Y-56330818D01*
X117970634Y-56330818D02*
X118046834Y-56330818D01*
X118046834Y-56330818D02*
X118161134Y-56292718D01*
X118161134Y-56292718D02*
X118199234Y-56254618D01*
X118199234Y-56254618D02*
X118199234Y-55987918D01*
X118199234Y-55987918D02*
X118046834Y-55987918D01*
X118542134Y-56330818D02*
X118542134Y-55530718D01*
X118542134Y-55530718D02*
X118999334Y-56330818D01*
X118999334Y-56330818D02*
X118999334Y-55530718D01*
X119380334Y-56330818D02*
X119380334Y-55530718D01*
X119380334Y-55530718D02*
X119570834Y-55530718D01*
X119570834Y-55530718D02*
X119685134Y-55568818D01*
X119685134Y-55568818D02*
X119761334Y-55645018D01*
X119761334Y-55645018D02*
X119799434Y-55721218D01*
X119799434Y-55721218D02*
X119837534Y-55873618D01*
X119837534Y-55873618D02*
X119837534Y-55987918D01*
X119837534Y-55987918D02*
X119799434Y-56140318D01*
X119799434Y-56140318D02*
X119761334Y-56216518D01*
X119761334Y-56216518D02*
X119685134Y-56292718D01*
X119685134Y-56292718D02*
X119570834Y-56330818D01*
X119570834Y-56330818D02*
X119380334Y-56330818D01*
X124485734Y-61029818D02*
X124409534Y-60991718D01*
X124409534Y-60991718D02*
X124295234Y-60991718D01*
X124295234Y-60991718D02*
X124180934Y-61029818D01*
X124180934Y-61029818D02*
X124104734Y-61106018D01*
X124104734Y-61106018D02*
X124066634Y-61182218D01*
X124066634Y-61182218D02*
X124028534Y-61334618D01*
X124028534Y-61334618D02*
X124028534Y-61448918D01*
X124028534Y-61448918D02*
X124066634Y-61601318D01*
X124066634Y-61601318D02*
X124104734Y-61677518D01*
X124104734Y-61677518D02*
X124180934Y-61753718D01*
X124180934Y-61753718D02*
X124295234Y-61791818D01*
X124295234Y-61791818D02*
X124371434Y-61791818D01*
X124371434Y-61791818D02*
X124485734Y-61753718D01*
X124485734Y-61753718D02*
X124523834Y-61715618D01*
X124523834Y-61715618D02*
X124523834Y-61448918D01*
X124523834Y-61448918D02*
X124371434Y-61448918D01*
X124866734Y-61791818D02*
X124866734Y-60991718D01*
X124866734Y-60991718D02*
X125323934Y-61791818D01*
X125323934Y-61791818D02*
X125323934Y-60991718D01*
X125704934Y-61791818D02*
X125704934Y-60991718D01*
X125704934Y-60991718D02*
X125895434Y-60991718D01*
X125895434Y-60991718D02*
X126009734Y-61029818D01*
X126009734Y-61029818D02*
X126085934Y-61106018D01*
X126085934Y-61106018D02*
X126124034Y-61182218D01*
X126124034Y-61182218D02*
X126162134Y-61334618D01*
X126162134Y-61334618D02*
X126162134Y-61448918D01*
X126162134Y-61448918D02*
X126124034Y-61601318D01*
X126124034Y-61601318D02*
X126085934Y-61677518D01*
X126085934Y-61677518D02*
X126009734Y-61753718D01*
X126009734Y-61753718D02*
X125895434Y-61791818D01*
X125895434Y-61791818D02*
X125704934Y-61791818D01*
X121336134Y-61779118D02*
X121450434Y-61817218D01*
X121450434Y-61817218D02*
X121640934Y-61817218D01*
X121640934Y-61817218D02*
X121717134Y-61779118D01*
X121717134Y-61779118D02*
X121755234Y-61741018D01*
X121755234Y-61741018D02*
X121793334Y-61664818D01*
X121793334Y-61664818D02*
X121793334Y-61588618D01*
X121793334Y-61588618D02*
X121755234Y-61512418D01*
X121755234Y-61512418D02*
X121717134Y-61474318D01*
X121717134Y-61474318D02*
X121640934Y-61436218D01*
X121640934Y-61436218D02*
X121488534Y-61398118D01*
X121488534Y-61398118D02*
X121412334Y-61360018D01*
X121412334Y-61360018D02*
X121374234Y-61321918D01*
X121374234Y-61321918D02*
X121336134Y-61245718D01*
X121336134Y-61245718D02*
X121336134Y-61169518D01*
X121336134Y-61169518D02*
X121374234Y-61093318D01*
X121374234Y-61093318D02*
X121412334Y-61055218D01*
X121412334Y-61055218D02*
X121488534Y-61017118D01*
X121488534Y-61017118D02*
X121679034Y-61017118D01*
X121679034Y-61017118D02*
X121793334Y-61055218D01*
X122136234Y-61817218D02*
X122136234Y-61017118D01*
X122136234Y-61017118D02*
X122326734Y-61017118D01*
X122326734Y-61017118D02*
X122441034Y-61055218D01*
X122441034Y-61055218D02*
X122517234Y-61131418D01*
X122517234Y-61131418D02*
X122555334Y-61207618D01*
X122555334Y-61207618D02*
X122593434Y-61360018D01*
X122593434Y-61360018D02*
X122593434Y-61474318D01*
X122593434Y-61474318D02*
X122555334Y-61626718D01*
X122555334Y-61626718D02*
X122517234Y-61702918D01*
X122517234Y-61702918D02*
X122441034Y-61779118D01*
X122441034Y-61779118D02*
X122326734Y-61817218D01*
X122326734Y-61817218D02*
X122136234Y-61817218D01*
X122898234Y-61588618D02*
X123279234Y-61588618D01*
X122822034Y-61817218D02*
X123088734Y-61017118D01*
X123088734Y-61017118D02*
X123355434Y-61817218D01*
D10*
X144612225Y-69928828D02*
X145112225Y-71428828D01*
X145112225Y-71428828D02*
X145612225Y-69928828D01*
X146112224Y-70857400D02*
X147255082Y-70857400D01*
D11*
X135153734Y-61702918D02*
X135268034Y-61741018D01*
X135268034Y-61741018D02*
X135458534Y-61741018D01*
X135458534Y-61741018D02*
X135534734Y-61702918D01*
X135534734Y-61702918D02*
X135572834Y-61664818D01*
X135572834Y-61664818D02*
X135610934Y-61588618D01*
X135610934Y-61588618D02*
X135610934Y-61512418D01*
X135610934Y-61512418D02*
X135572834Y-61436218D01*
X135572834Y-61436218D02*
X135534734Y-61398118D01*
X135534734Y-61398118D02*
X135458534Y-61360018D01*
X135458534Y-61360018D02*
X135306134Y-61321918D01*
X135306134Y-61321918D02*
X135229934Y-61283818D01*
X135229934Y-61283818D02*
X135191834Y-61245718D01*
X135191834Y-61245718D02*
X135153734Y-61169518D01*
X135153734Y-61169518D02*
X135153734Y-61093318D01*
X135153734Y-61093318D02*
X135191834Y-61017118D01*
X135191834Y-61017118D02*
X135229934Y-60979018D01*
X135229934Y-60979018D02*
X135306134Y-60940918D01*
X135306134Y-60940918D02*
X135496634Y-60940918D01*
X135496634Y-60940918D02*
X135610934Y-60979018D01*
X136411034Y-61664818D02*
X136372934Y-61702918D01*
X136372934Y-61702918D02*
X136258634Y-61741018D01*
X136258634Y-61741018D02*
X136182434Y-61741018D01*
X136182434Y-61741018D02*
X136068134Y-61702918D01*
X136068134Y-61702918D02*
X135991934Y-61626718D01*
X135991934Y-61626718D02*
X135953834Y-61550518D01*
X135953834Y-61550518D02*
X135915734Y-61398118D01*
X135915734Y-61398118D02*
X135915734Y-61283818D01*
X135915734Y-61283818D02*
X135953834Y-61131418D01*
X135953834Y-61131418D02*
X135991934Y-61055218D01*
X135991934Y-61055218D02*
X136068134Y-60979018D01*
X136068134Y-60979018D02*
X136182434Y-60940918D01*
X136182434Y-60940918D02*
X136258634Y-60940918D01*
X136258634Y-60940918D02*
X136372934Y-60979018D01*
X136372934Y-60979018D02*
X136411034Y-61017118D01*
X137134934Y-61741018D02*
X136753934Y-61741018D01*
X136753934Y-61741018D02*
X136753934Y-60940918D01*
X121628234Y-55581518D02*
X121247234Y-55581518D01*
X121247234Y-55581518D02*
X121209134Y-55962518D01*
X121209134Y-55962518D02*
X121247234Y-55924418D01*
X121247234Y-55924418D02*
X121323434Y-55886318D01*
X121323434Y-55886318D02*
X121513934Y-55886318D01*
X121513934Y-55886318D02*
X121590134Y-55924418D01*
X121590134Y-55924418D02*
X121628234Y-55962518D01*
X121628234Y-55962518D02*
X121666334Y-56038718D01*
X121666334Y-56038718D02*
X121666334Y-56229218D01*
X121666334Y-56229218D02*
X121628234Y-56305418D01*
X121628234Y-56305418D02*
X121590134Y-56343518D01*
X121590134Y-56343518D02*
X121513934Y-56381618D01*
X121513934Y-56381618D02*
X121323434Y-56381618D01*
X121323434Y-56381618D02*
X121247234Y-56343518D01*
X121247234Y-56343518D02*
X121209134Y-56305418D01*
X121894934Y-55581518D02*
X122161634Y-56381618D01*
X122161634Y-56381618D02*
X122428334Y-55581518D01*
X130022934Y-61106018D02*
X129946734Y-61067918D01*
X129946734Y-61067918D02*
X129832434Y-61067918D01*
X129832434Y-61067918D02*
X129718134Y-61106018D01*
X129718134Y-61106018D02*
X129641934Y-61182218D01*
X129641934Y-61182218D02*
X129603834Y-61258418D01*
X129603834Y-61258418D02*
X129565734Y-61410818D01*
X129565734Y-61410818D02*
X129565734Y-61525118D01*
X129565734Y-61525118D02*
X129603834Y-61677518D01*
X129603834Y-61677518D02*
X129641934Y-61753718D01*
X129641934Y-61753718D02*
X129718134Y-61829918D01*
X129718134Y-61829918D02*
X129832434Y-61868018D01*
X129832434Y-61868018D02*
X129908634Y-61868018D01*
X129908634Y-61868018D02*
X130022934Y-61829918D01*
X130022934Y-61829918D02*
X130061034Y-61791818D01*
X130061034Y-61791818D02*
X130061034Y-61525118D01*
X130061034Y-61525118D02*
X129908634Y-61525118D01*
X130403934Y-61868018D02*
X130403934Y-61067918D01*
X130403934Y-61067918D02*
X130861134Y-61868018D01*
X130861134Y-61868018D02*
X130861134Y-61067918D01*
X131242134Y-61868018D02*
X131242134Y-61067918D01*
X131242134Y-61067918D02*
X131432634Y-61067918D01*
X131432634Y-61067918D02*
X131546934Y-61106018D01*
X131546934Y-61106018D02*
X131623134Y-61182218D01*
X131623134Y-61182218D02*
X131661234Y-61258418D01*
X131661234Y-61258418D02*
X131699334Y-61410818D01*
X131699334Y-61410818D02*
X131699334Y-61525118D01*
X131699334Y-61525118D02*
X131661234Y-61677518D01*
X131661234Y-61677518D02*
X131623134Y-61753718D01*
X131623134Y-61753718D02*
X131546934Y-61829918D01*
X131546934Y-61829918D02*
X131432634Y-61868018D01*
X131432634Y-61868018D02*
X131242134Y-61868018D01*
X128105234Y-55505318D02*
X128257634Y-55505318D01*
X128257634Y-55505318D02*
X128333834Y-55543418D01*
X128333834Y-55543418D02*
X128410034Y-55619618D01*
X128410034Y-55619618D02*
X128448134Y-55772018D01*
X128448134Y-55772018D02*
X128448134Y-56038718D01*
X128448134Y-56038718D02*
X128410034Y-56191118D01*
X128410034Y-56191118D02*
X128333834Y-56267318D01*
X128333834Y-56267318D02*
X128257634Y-56305418D01*
X128257634Y-56305418D02*
X128105234Y-56305418D01*
X128105234Y-56305418D02*
X128029034Y-56267318D01*
X128029034Y-56267318D02*
X127952834Y-56191118D01*
X127952834Y-56191118D02*
X127914734Y-56038718D01*
X127914734Y-56038718D02*
X127914734Y-55772018D01*
X127914734Y-55772018D02*
X127952834Y-55619618D01*
X127952834Y-55619618D02*
X128029034Y-55543418D01*
X128029034Y-55543418D02*
X128105234Y-55505318D01*
X128791034Y-56305418D02*
X128791034Y-55505318D01*
X128791034Y-55505318D02*
X129248234Y-56305418D01*
X129248234Y-56305418D02*
X129248234Y-55505318D01*
X132435934Y-61702918D02*
X132550234Y-61741018D01*
X132550234Y-61741018D02*
X132740734Y-61741018D01*
X132740734Y-61741018D02*
X132816934Y-61702918D01*
X132816934Y-61702918D02*
X132855034Y-61664818D01*
X132855034Y-61664818D02*
X132893134Y-61588618D01*
X132893134Y-61588618D02*
X132893134Y-61512418D01*
X132893134Y-61512418D02*
X132855034Y-61436218D01*
X132855034Y-61436218D02*
X132816934Y-61398118D01*
X132816934Y-61398118D02*
X132740734Y-61360018D01*
X132740734Y-61360018D02*
X132588334Y-61321918D01*
X132588334Y-61321918D02*
X132512134Y-61283818D01*
X132512134Y-61283818D02*
X132474034Y-61245718D01*
X132474034Y-61245718D02*
X132435934Y-61169518D01*
X132435934Y-61169518D02*
X132435934Y-61093318D01*
X132435934Y-61093318D02*
X132474034Y-61017118D01*
X132474034Y-61017118D02*
X132512134Y-60979018D01*
X132512134Y-60979018D02*
X132588334Y-60940918D01*
X132588334Y-60940918D02*
X132778834Y-60940918D01*
X132778834Y-60940918D02*
X132893134Y-60979018D01*
X133236034Y-61741018D02*
X133236034Y-60940918D01*
X133236034Y-60940918D02*
X133426534Y-60940918D01*
X133426534Y-60940918D02*
X133540834Y-60979018D01*
X133540834Y-60979018D02*
X133617034Y-61055218D01*
X133617034Y-61055218D02*
X133655134Y-61131418D01*
X133655134Y-61131418D02*
X133693234Y-61283818D01*
X133693234Y-61283818D02*
X133693234Y-61398118D01*
X133693234Y-61398118D02*
X133655134Y-61550518D01*
X133655134Y-61550518D02*
X133617034Y-61626718D01*
X133617034Y-61626718D02*
X133540834Y-61702918D01*
X133540834Y-61702918D02*
X133426534Y-61741018D01*
X133426534Y-61741018D02*
X133236034Y-61741018D01*
X133998034Y-61512418D02*
X134379034Y-61512418D01*
X133921834Y-61741018D02*
X134188534Y-60940918D01*
X134188534Y-60940918D02*
X134455234Y-61741018D01*
X118440534Y-61728318D02*
X118554834Y-61766418D01*
X118554834Y-61766418D02*
X118745334Y-61766418D01*
X118745334Y-61766418D02*
X118821534Y-61728318D01*
X118821534Y-61728318D02*
X118859634Y-61690218D01*
X118859634Y-61690218D02*
X118897734Y-61614018D01*
X118897734Y-61614018D02*
X118897734Y-61537818D01*
X118897734Y-61537818D02*
X118859634Y-61461618D01*
X118859634Y-61461618D02*
X118821534Y-61423518D01*
X118821534Y-61423518D02*
X118745334Y-61385418D01*
X118745334Y-61385418D02*
X118592934Y-61347318D01*
X118592934Y-61347318D02*
X118516734Y-61309218D01*
X118516734Y-61309218D02*
X118478634Y-61271118D01*
X118478634Y-61271118D02*
X118440534Y-61194918D01*
X118440534Y-61194918D02*
X118440534Y-61118718D01*
X118440534Y-61118718D02*
X118478634Y-61042518D01*
X118478634Y-61042518D02*
X118516734Y-61004418D01*
X118516734Y-61004418D02*
X118592934Y-60966318D01*
X118592934Y-60966318D02*
X118783434Y-60966318D01*
X118783434Y-60966318D02*
X118897734Y-61004418D01*
X119697834Y-61690218D02*
X119659734Y-61728318D01*
X119659734Y-61728318D02*
X119545434Y-61766418D01*
X119545434Y-61766418D02*
X119469234Y-61766418D01*
X119469234Y-61766418D02*
X119354934Y-61728318D01*
X119354934Y-61728318D02*
X119278734Y-61652118D01*
X119278734Y-61652118D02*
X119240634Y-61575918D01*
X119240634Y-61575918D02*
X119202534Y-61423518D01*
X119202534Y-61423518D02*
X119202534Y-61309218D01*
X119202534Y-61309218D02*
X119240634Y-61156818D01*
X119240634Y-61156818D02*
X119278734Y-61080618D01*
X119278734Y-61080618D02*
X119354934Y-61004418D01*
X119354934Y-61004418D02*
X119469234Y-60966318D01*
X119469234Y-60966318D02*
X119545434Y-60966318D01*
X119545434Y-60966318D02*
X119659734Y-61004418D01*
X119659734Y-61004418D02*
X119697834Y-61042518D01*
X120421734Y-61766418D02*
X120040734Y-61766418D01*
X120040734Y-61766418D02*
X120040734Y-60966318D01*
X138887534Y-55479918D02*
X139154234Y-56280018D01*
X139154234Y-56280018D02*
X139420934Y-55479918D01*
X139687634Y-55975218D02*
X140297234Y-55975218D01*
X116242711Y-86641485D02*
X114972711Y-86641485D01*
X114972711Y-86641485D02*
X116242711Y-85915770D01*
X116242711Y-85915770D02*
X114972711Y-85915770D01*
X115396044Y-84766723D02*
X116242711Y-84766723D01*
X114912235Y-85069104D02*
X115819377Y-85371485D01*
X115819377Y-85371485D02*
X115819377Y-84585294D01*
X114972711Y-83859580D02*
X114972711Y-83617675D01*
X114972711Y-83617675D02*
X115033187Y-83496723D01*
X115033187Y-83496723D02*
X115154139Y-83375770D01*
X115154139Y-83375770D02*
X115396044Y-83315294D01*
X115396044Y-83315294D02*
X115819377Y-83315294D01*
X115819377Y-83315294D02*
X116061282Y-83375770D01*
X116061282Y-83375770D02*
X116182235Y-83496723D01*
X116182235Y-83496723D02*
X116242711Y-83617675D01*
X116242711Y-83617675D02*
X116242711Y-83859580D01*
X116242711Y-83859580D02*
X116182235Y-83980532D01*
X116182235Y-83980532D02*
X116061282Y-84101485D01*
X116061282Y-84101485D02*
X115819377Y-84161961D01*
X115819377Y-84161961D02*
X115396044Y-84161961D01*
X115396044Y-84161961D02*
X115154139Y-84101485D01*
X115154139Y-84101485D02*
X115033187Y-83980532D01*
X115033187Y-83980532D02*
X114972711Y-83859580D01*
X115033187Y-82105770D02*
X114972711Y-82226723D01*
X114972711Y-82226723D02*
X114972711Y-82408151D01*
X114972711Y-82408151D02*
X115033187Y-82589580D01*
X115033187Y-82589580D02*
X115154139Y-82710532D01*
X115154139Y-82710532D02*
X115275092Y-82771009D01*
X115275092Y-82771009D02*
X115516996Y-82831485D01*
X115516996Y-82831485D02*
X115698425Y-82831485D01*
X115698425Y-82831485D02*
X115940330Y-82771009D01*
X115940330Y-82771009D02*
X116061282Y-82710532D01*
X116061282Y-82710532D02*
X116182235Y-82589580D01*
X116182235Y-82589580D02*
X116242711Y-82408151D01*
X116242711Y-82408151D02*
X116242711Y-82287199D01*
X116242711Y-82287199D02*
X116182235Y-82105770D01*
X116182235Y-82105770D02*
X116121758Y-82045294D01*
X116121758Y-82045294D02*
X115698425Y-82045294D01*
X115698425Y-82045294D02*
X115698425Y-82287199D01*
X114972711Y-81621961D02*
X116242711Y-81319580D01*
X116242711Y-81319580D02*
X115335568Y-81077675D01*
X115335568Y-81077675D02*
X116242711Y-80835770D01*
X116242711Y-80835770D02*
X114972711Y-80533390D01*
X116242711Y-78416722D02*
X116242711Y-79142437D01*
X116242711Y-78779580D02*
X114972711Y-78779580D01*
X114972711Y-78779580D02*
X115154139Y-78900532D01*
X115154139Y-78900532D02*
X115275092Y-79021484D01*
X115275092Y-79021484D02*
X115335568Y-79142437D01*
X114972711Y-77630532D02*
X114972711Y-77509579D01*
X114972711Y-77509579D02*
X115033187Y-77388627D01*
X115033187Y-77388627D02*
X115093663Y-77328151D01*
X115093663Y-77328151D02*
X115214615Y-77267675D01*
X115214615Y-77267675D02*
X115456520Y-77207198D01*
X115456520Y-77207198D02*
X115758901Y-77207198D01*
X115758901Y-77207198D02*
X116000806Y-77267675D01*
X116000806Y-77267675D02*
X116121758Y-77328151D01*
X116121758Y-77328151D02*
X116182235Y-77388627D01*
X116182235Y-77388627D02*
X116242711Y-77509579D01*
X116242711Y-77509579D02*
X116242711Y-77630532D01*
X116242711Y-77630532D02*
X116182235Y-77751484D01*
X116182235Y-77751484D02*
X116121758Y-77811960D01*
X116121758Y-77811960D02*
X116000806Y-77872437D01*
X116000806Y-77872437D02*
X115758901Y-77932913D01*
X115758901Y-77932913D02*
X115456520Y-77932913D01*
X115456520Y-77932913D02*
X115214615Y-77872437D01*
X115214615Y-77872437D02*
X115093663Y-77811960D01*
X115093663Y-77811960D02*
X115033187Y-77751484D01*
X115033187Y-77751484D02*
X114972711Y-77630532D01*
X114912235Y-75755770D02*
X116545092Y-76844341D01*
X115093663Y-75392913D02*
X115033187Y-75332437D01*
X115033187Y-75332437D02*
X114972711Y-75211484D01*
X114972711Y-75211484D02*
X114972711Y-74909103D01*
X114972711Y-74909103D02*
X115033187Y-74788151D01*
X115033187Y-74788151D02*
X115093663Y-74727675D01*
X115093663Y-74727675D02*
X115214615Y-74667198D01*
X115214615Y-74667198D02*
X115335568Y-74667198D01*
X115335568Y-74667198D02*
X115516996Y-74727675D01*
X115516996Y-74727675D02*
X116242711Y-75453389D01*
X116242711Y-75453389D02*
X116242711Y-74667198D01*
X114972711Y-73881008D02*
X114972711Y-73760055D01*
X114972711Y-73760055D02*
X115033187Y-73639103D01*
X115033187Y-73639103D02*
X115093663Y-73578627D01*
X115093663Y-73578627D02*
X115214615Y-73518151D01*
X115214615Y-73518151D02*
X115456520Y-73457674D01*
X115456520Y-73457674D02*
X115758901Y-73457674D01*
X115758901Y-73457674D02*
X116000806Y-73518151D01*
X116000806Y-73518151D02*
X116121758Y-73578627D01*
X116121758Y-73578627D02*
X116182235Y-73639103D01*
X116182235Y-73639103D02*
X116242711Y-73760055D01*
X116242711Y-73760055D02*
X116242711Y-73881008D01*
X116242711Y-73881008D02*
X116182235Y-74001960D01*
X116182235Y-74001960D02*
X116121758Y-74062436D01*
X116121758Y-74062436D02*
X116000806Y-74122913D01*
X116000806Y-74122913D02*
X115758901Y-74183389D01*
X115758901Y-74183389D02*
X115456520Y-74183389D01*
X115456520Y-74183389D02*
X115214615Y-74122913D01*
X115214615Y-74122913D02*
X115093663Y-74062436D01*
X115093663Y-74062436D02*
X115033187Y-74001960D01*
X115033187Y-74001960D02*
X114972711Y-73881008D01*
X115093663Y-72973865D02*
X115033187Y-72913389D01*
X115033187Y-72913389D02*
X114972711Y-72792436D01*
X114972711Y-72792436D02*
X114972711Y-72490055D01*
X114972711Y-72490055D02*
X115033187Y-72369103D01*
X115033187Y-72369103D02*
X115093663Y-72308627D01*
X115093663Y-72308627D02*
X115214615Y-72248150D01*
X115214615Y-72248150D02*
X115335568Y-72248150D01*
X115335568Y-72248150D02*
X115516996Y-72308627D01*
X115516996Y-72308627D02*
X116242711Y-73034341D01*
X116242711Y-73034341D02*
X116242711Y-72248150D01*
X115396044Y-71159579D02*
X116242711Y-71159579D01*
X114912235Y-71461960D02*
X115819377Y-71764341D01*
X115819377Y-71764341D02*
X115819377Y-70978150D01*
X134683834Y-56280018D02*
X134683834Y-55479918D01*
X135026734Y-56241918D02*
X135141034Y-56280018D01*
X135141034Y-56280018D02*
X135331534Y-56280018D01*
X135331534Y-56280018D02*
X135407734Y-56241918D01*
X135407734Y-56241918D02*
X135445834Y-56203818D01*
X135445834Y-56203818D02*
X135483934Y-56127618D01*
X135483934Y-56127618D02*
X135483934Y-56051418D01*
X135483934Y-56051418D02*
X135445834Y-55975218D01*
X135445834Y-55975218D02*
X135407734Y-55937118D01*
X135407734Y-55937118D02*
X135331534Y-55899018D01*
X135331534Y-55899018D02*
X135179134Y-55860918D01*
X135179134Y-55860918D02*
X135102934Y-55822818D01*
X135102934Y-55822818D02*
X135064834Y-55784718D01*
X135064834Y-55784718D02*
X135026734Y-55708518D01*
X135026734Y-55708518D02*
X135026734Y-55632318D01*
X135026734Y-55632318D02*
X135064834Y-55556118D01*
X135064834Y-55556118D02*
X135102934Y-55518018D01*
X135102934Y-55518018D02*
X135179134Y-55479918D01*
X135179134Y-55479918D02*
X135369634Y-55479918D01*
X135369634Y-55479918D02*
X135483934Y-55518018D01*
X135826834Y-56280018D02*
X135826834Y-55479918D01*
X136169734Y-56280018D02*
X136169734Y-55860918D01*
X136169734Y-55860918D02*
X136131634Y-55784718D01*
X136131634Y-55784718D02*
X136055434Y-55746618D01*
X136055434Y-55746618D02*
X135941134Y-55746618D01*
X135941134Y-55746618D02*
X135864934Y-55784718D01*
X135864934Y-55784718D02*
X135826834Y-55822818D01*
X136893634Y-56280018D02*
X136893634Y-55860918D01*
X136893634Y-55860918D02*
X136855534Y-55784718D01*
X136855534Y-55784718D02*
X136779334Y-55746618D01*
X136779334Y-55746618D02*
X136626934Y-55746618D01*
X136626934Y-55746618D02*
X136550734Y-55784718D01*
X136893634Y-56241918D02*
X136817434Y-56280018D01*
X136817434Y-56280018D02*
X136626934Y-56280018D01*
X136626934Y-56280018D02*
X136550734Y-56241918D01*
X136550734Y-56241918D02*
X136512634Y-56165718D01*
X136512634Y-56165718D02*
X136512634Y-56089518D01*
X136512634Y-56089518D02*
X136550734Y-56013318D01*
X136550734Y-56013318D02*
X136626934Y-55975218D01*
X136626934Y-55975218D02*
X136817434Y-55975218D01*
X136817434Y-55975218D02*
X136893634Y-55937118D01*
X137274634Y-56280018D02*
X137274634Y-55746618D01*
X137274634Y-55899018D02*
X137312734Y-55822818D01*
X137312734Y-55822818D02*
X137350834Y-55784718D01*
X137350834Y-55784718D02*
X137427034Y-55746618D01*
X137427034Y-55746618D02*
X137503234Y-55746618D01*
X138074734Y-56241918D02*
X137998534Y-56280018D01*
X137998534Y-56280018D02*
X137846134Y-56280018D01*
X137846134Y-56280018D02*
X137769934Y-56241918D01*
X137769934Y-56241918D02*
X137731834Y-56165718D01*
X137731834Y-56165718D02*
X137731834Y-55860918D01*
X137731834Y-55860918D02*
X137769934Y-55784718D01*
X137769934Y-55784718D02*
X137846134Y-55746618D01*
X137846134Y-55746618D02*
X137998534Y-55746618D01*
X137998534Y-55746618D02*
X138074734Y-55784718D01*
X138074734Y-55784718D02*
X138112834Y-55860918D01*
X138112834Y-55860918D02*
X138112834Y-55937118D01*
X138112834Y-55937118D02*
X137731834Y-56013318D01*
X116571954Y-69649933D02*
X117286239Y-69649933D01*
X117286239Y-69649933D02*
X117429096Y-69697552D01*
X117429096Y-69697552D02*
X117524335Y-69792790D01*
X117524335Y-69792790D02*
X117571954Y-69935647D01*
X117571954Y-69935647D02*
X117571954Y-70030885D01*
X116571954Y-69268980D02*
X116571954Y-68602314D01*
X116571954Y-68602314D02*
X117571954Y-69030885D01*
D12*
X124083866Y-55461819D02*
X124083866Y-56176104D01*
X124083866Y-56176104D02*
X124036247Y-56318961D01*
X124036247Y-56318961D02*
X123941009Y-56414200D01*
X123941009Y-56414200D02*
X123798152Y-56461819D01*
X123798152Y-56461819D02*
X123702914Y-56461819D01*
X124560057Y-56461819D02*
X124560057Y-55461819D01*
X124560057Y-55461819D02*
X124941009Y-55461819D01*
X124941009Y-55461819D02*
X125036247Y-55509438D01*
X125036247Y-55509438D02*
X125083866Y-55557057D01*
X125083866Y-55557057D02*
X125131485Y-55652295D01*
X125131485Y-55652295D02*
X125131485Y-55795152D01*
X125131485Y-55795152D02*
X125083866Y-55890390D01*
X125083866Y-55890390D02*
X125036247Y-55938009D01*
X125036247Y-55938009D02*
X124941009Y-55985628D01*
X124941009Y-55985628D02*
X124560057Y-55985628D01*
X125512438Y-55557057D02*
X125560057Y-55509438D01*
X125560057Y-55509438D02*
X125655295Y-55461819D01*
X125655295Y-55461819D02*
X125893390Y-55461819D01*
X125893390Y-55461819D02*
X125988628Y-55509438D01*
X125988628Y-55509438D02*
X126036247Y-55557057D01*
X126036247Y-55557057D02*
X126083866Y-55652295D01*
X126083866Y-55652295D02*
X126083866Y-55747533D01*
X126083866Y-55747533D02*
X126036247Y-55890390D01*
X126036247Y-55890390D02*
X125464819Y-56461819D01*
X125464819Y-56461819D02*
X126083866Y-56461819D01*
D11*
X133412154Y-58727933D02*
X134126439Y-58727933D01*
X134126439Y-58727933D02*
X134269296Y-58775552D01*
X134269296Y-58775552D02*
X134364535Y-58870790D01*
X134364535Y-58870790D02*
X134412154Y-59013647D01*
X134412154Y-59013647D02*
X134412154Y-59108885D01*
X133412154Y-58346980D02*
X133412154Y-57727933D01*
X133412154Y-57727933D02*
X133793106Y-58061266D01*
X133793106Y-58061266D02*
X133793106Y-57918409D01*
X133793106Y-57918409D02*
X133840725Y-57823171D01*
X133840725Y-57823171D02*
X133888344Y-57775552D01*
X133888344Y-57775552D02*
X133983582Y-57727933D01*
X133983582Y-57727933D02*
X134221677Y-57727933D01*
X134221677Y-57727933D02*
X134316915Y-57775552D01*
X134316915Y-57775552D02*
X134364535Y-57823171D01*
X134364535Y-57823171D02*
X134412154Y-57918409D01*
X134412154Y-57918409D02*
X134412154Y-58204123D01*
X134412154Y-58204123D02*
X134364535Y-58299361D01*
X134364535Y-58299361D02*
X134316915Y-58346980D01*
X115616154Y-66867066D02*
X115139963Y-67200399D01*
X115616154Y-67438494D02*
X114616154Y-67438494D01*
X114616154Y-67438494D02*
X114616154Y-67057542D01*
X114616154Y-67057542D02*
X114663773Y-66962304D01*
X114663773Y-66962304D02*
X114711392Y-66914685D01*
X114711392Y-66914685D02*
X114806630Y-66867066D01*
X114806630Y-66867066D02*
X114949487Y-66867066D01*
X114949487Y-66867066D02*
X115044725Y-66914685D01*
X115044725Y-66914685D02*
X115092344Y-66962304D01*
X115092344Y-66962304D02*
X115139963Y-67057542D01*
X115139963Y-67057542D02*
X115139963Y-67438494D01*
X115616154Y-65914685D02*
X115616154Y-66486113D01*
X115616154Y-66200399D02*
X114616154Y-66200399D01*
X114616154Y-66200399D02*
X114759011Y-66295637D01*
X114759011Y-66295637D02*
X114854249Y-66390875D01*
X114854249Y-66390875D02*
X114901868Y-66486113D01*
X140143154Y-72664533D02*
X140857439Y-72664533D01*
X140857439Y-72664533D02*
X141000296Y-72712152D01*
X141000296Y-72712152D02*
X141095535Y-72807390D01*
X141095535Y-72807390D02*
X141143154Y-72950247D01*
X141143154Y-72950247D02*
X141143154Y-73045485D01*
X141143154Y-72188342D02*
X140143154Y-72188342D01*
X140143154Y-72188342D02*
X140143154Y-71807390D01*
X140143154Y-71807390D02*
X140190773Y-71712152D01*
X140190773Y-71712152D02*
X140238392Y-71664533D01*
X140238392Y-71664533D02*
X140333630Y-71616914D01*
X140333630Y-71616914D02*
X140476487Y-71616914D01*
X140476487Y-71616914D02*
X140571725Y-71664533D01*
X140571725Y-71664533D02*
X140619344Y-71712152D01*
X140619344Y-71712152D02*
X140666963Y-71807390D01*
X140666963Y-71807390D02*
X140666963Y-72188342D01*
X141143154Y-70664533D02*
X141143154Y-71235961D01*
X141143154Y-70950247D02*
X140143154Y-70950247D01*
X140143154Y-70950247D02*
X140286011Y-71045485D01*
X140286011Y-71045485D02*
X140381249Y-71140723D01*
X140381249Y-71140723D02*
X140428868Y-71235961D01*
D12*
X126229819Y-64341333D02*
X126944104Y-64341333D01*
X126944104Y-64341333D02*
X127086961Y-64388952D01*
X127086961Y-64388952D02*
X127182200Y-64484190D01*
X127182200Y-64484190D02*
X127229819Y-64627047D01*
X127229819Y-64627047D02*
X127229819Y-64722285D01*
X126563152Y-63436571D02*
X127229819Y-63436571D01*
X126182200Y-63674666D02*
X126896485Y-63912761D01*
X126896485Y-63912761D02*
X126896485Y-63293714D01*
D11*
X115657554Y-58804133D02*
X116371839Y-58804133D01*
X116371839Y-58804133D02*
X116514696Y-58851752D01*
X116514696Y-58851752D02*
X116609935Y-58946990D01*
X116609935Y-58946990D02*
X116657554Y-59089847D01*
X116657554Y-59089847D02*
X116657554Y-59185085D01*
X115657554Y-57899371D02*
X115657554Y-58089847D01*
X115657554Y-58089847D02*
X115705173Y-58185085D01*
X115705173Y-58185085D02*
X115752792Y-58232704D01*
X115752792Y-58232704D02*
X115895649Y-58327942D01*
X115895649Y-58327942D02*
X116086125Y-58375561D01*
X116086125Y-58375561D02*
X116467077Y-58375561D01*
X116467077Y-58375561D02*
X116562315Y-58327942D01*
X116562315Y-58327942D02*
X116609935Y-58280323D01*
X116609935Y-58280323D02*
X116657554Y-58185085D01*
X116657554Y-58185085D02*
X116657554Y-57994609D01*
X116657554Y-57994609D02*
X116609935Y-57899371D01*
X116609935Y-57899371D02*
X116562315Y-57851752D01*
X116562315Y-57851752D02*
X116467077Y-57804133D01*
X116467077Y-57804133D02*
X116228982Y-57804133D01*
X116228982Y-57804133D02*
X116133744Y-57851752D01*
X116133744Y-57851752D02*
X116086125Y-57899371D01*
X116086125Y-57899371D02*
X116038506Y-57994609D01*
X116038506Y-57994609D02*
X116038506Y-58185085D01*
X116038506Y-58185085D02*
X116086125Y-58280323D01*
X116086125Y-58280323D02*
X116133744Y-58327942D01*
X116133744Y-58327942D02*
X116228982Y-58375561D01*
X141193954Y-61450266D02*
X140717763Y-61783599D01*
X141193954Y-62021694D02*
X140193954Y-62021694D01*
X140193954Y-62021694D02*
X140193954Y-61640742D01*
X140193954Y-61640742D02*
X140241573Y-61545504D01*
X140241573Y-61545504D02*
X140289192Y-61497885D01*
X140289192Y-61497885D02*
X140384430Y-61450266D01*
X140384430Y-61450266D02*
X140527287Y-61450266D01*
X140527287Y-61450266D02*
X140622525Y-61497885D01*
X140622525Y-61497885D02*
X140670144Y-61545504D01*
X140670144Y-61545504D02*
X140717763Y-61640742D01*
X140717763Y-61640742D02*
X140717763Y-62021694D01*
X140289192Y-61069313D02*
X140241573Y-61021694D01*
X140241573Y-61021694D02*
X140193954Y-60926456D01*
X140193954Y-60926456D02*
X140193954Y-60688361D01*
X140193954Y-60688361D02*
X140241573Y-60593123D01*
X140241573Y-60593123D02*
X140289192Y-60545504D01*
X140289192Y-60545504D02*
X140384430Y-60497885D01*
X140384430Y-60497885D02*
X140479668Y-60497885D01*
X140479668Y-60497885D02*
X140622525Y-60545504D01*
X140622525Y-60545504D02*
X141193954Y-61116932D01*
X141193954Y-61116932D02*
X141193954Y-60497885D01*
X127327066Y-60437954D02*
X127327066Y-61152239D01*
X127327066Y-61152239D02*
X127279447Y-61295096D01*
X127279447Y-61295096D02*
X127184209Y-61390335D01*
X127184209Y-61390335D02*
X127041352Y-61437954D01*
X127041352Y-61437954D02*
X126946114Y-61437954D01*
X127755638Y-60533192D02*
X127803257Y-60485573D01*
X127803257Y-60485573D02*
X127898495Y-60437954D01*
X127898495Y-60437954D02*
X128136590Y-60437954D01*
X128136590Y-60437954D02*
X128231828Y-60485573D01*
X128231828Y-60485573D02*
X128279447Y-60533192D01*
X128279447Y-60533192D02*
X128327066Y-60628430D01*
X128327066Y-60628430D02*
X128327066Y-60723668D01*
X128327066Y-60723668D02*
X128279447Y-60866525D01*
X128279447Y-60866525D02*
X127708019Y-61437954D01*
X127708019Y-61437954D02*
X128327066Y-61437954D01*
D12*
X127680819Y-64366733D02*
X128395104Y-64366733D01*
X128395104Y-64366733D02*
X128537961Y-64414352D01*
X128537961Y-64414352D02*
X128633200Y-64509590D01*
X128633200Y-64509590D02*
X128680819Y-64652447D01*
X128680819Y-64652447D02*
X128680819Y-64747685D01*
X127680819Y-63414352D02*
X127680819Y-63890542D01*
X127680819Y-63890542D02*
X128157009Y-63938161D01*
X128157009Y-63938161D02*
X128109390Y-63890542D01*
X128109390Y-63890542D02*
X128061771Y-63795304D01*
X128061771Y-63795304D02*
X128061771Y-63557209D01*
X128061771Y-63557209D02*
X128109390Y-63461971D01*
X128109390Y-63461971D02*
X128157009Y-63414352D01*
X128157009Y-63414352D02*
X128252247Y-63366733D01*
X128252247Y-63366733D02*
X128490342Y-63366733D01*
X128490342Y-63366733D02*
X128585580Y-63414352D01*
X128585580Y-63414352D02*
X128633200Y-63461971D01*
X128633200Y-63461971D02*
X128680819Y-63557209D01*
X128680819Y-63557209D02*
X128680819Y-63795304D01*
X128680819Y-63795304D02*
X128633200Y-63890542D01*
X128633200Y-63890542D02*
X128585580Y-63938161D01*
D13*
%TO.C,J7*%
X118177000Y-67758000D02*
X118177000Y-70418000D01*
X136017000Y-67758000D02*
X118177000Y-67758000D01*
X136017000Y-67758000D02*
X136017000Y-70418000D01*
X136017000Y-70418000D02*
X118177000Y-70418000D01*
X137287000Y-67758000D02*
X138617000Y-67758000D01*
X138617000Y-67758000D02*
X138617000Y-69088000D01*
%TO.C,JP2*%
X124095000Y-57005000D02*
X126095000Y-57005000D01*
X124095000Y-59805000D02*
X124095000Y-57005000D01*
X126095000Y-57005000D02*
X126095000Y-59805000D01*
X126095000Y-59805000D02*
X124095000Y-59805000D01*
D14*
%TO.C,J1*%
X118210000Y-74990000D02*
X175360000Y-74990000D01*
X118210000Y-88210000D02*
X118210000Y-74990000D01*
X175360000Y-74990000D02*
X175360000Y-88210000D01*
D15*
X176135000Y-84400000D02*
G75*
G02*
X175935000Y-84400000I-100000J0D01*
G01*
X175935000Y-84400000D02*
G75*
G02*
X176135000Y-84400000I100000J0D01*
G01*
D13*
%TO.C,J3*%
X135322000Y-59750000D02*
X135322000Y-58420000D01*
X136652000Y-59750000D02*
X135322000Y-59750000D01*
X137922000Y-57090000D02*
X140522000Y-57090000D01*
X137922000Y-59750000D02*
X137922000Y-57090000D01*
X137922000Y-59750000D02*
X140522000Y-59750000D01*
X140522000Y-59750000D02*
X140522000Y-57090000D01*
%TO.C,R1*%
X115165200Y-63844664D02*
X115165200Y-63390536D01*
X116635200Y-63844664D02*
X116635200Y-63390536D01*
%TO.C,JP1*%
X139614400Y-67347400D02*
X141614400Y-67347400D01*
X139614400Y-70147400D02*
X139614400Y-67347400D01*
X141614400Y-67347400D02*
X141614400Y-70147400D01*
X141614400Y-70147400D02*
X139614400Y-70147400D01*
%TO.C,J4*%
X118035000Y-62678000D02*
X118035000Y-65338000D01*
X123175000Y-62678000D02*
X118035000Y-62678000D01*
X123175000Y-62678000D02*
X123175000Y-65338000D01*
X123175000Y-65338000D02*
X118035000Y-65338000D01*
X124445000Y-62678000D02*
X125775000Y-62678000D01*
X125775000Y-62678000D02*
X125775000Y-64008000D01*
%TO.C,J6*%
X117669000Y-59826200D02*
X117669000Y-58496200D01*
X118999000Y-59826200D02*
X117669000Y-59826200D01*
X120269000Y-57166200D02*
X122869000Y-57166200D01*
X120269000Y-59826200D02*
X120269000Y-57166200D01*
X120269000Y-59826200D02*
X122869000Y-59826200D01*
X122869000Y-59826200D02*
X122869000Y-57166200D01*
%TO.C,R2*%
X140006400Y-64498464D02*
X140006400Y-64044336D01*
X141476400Y-64498464D02*
X141476400Y-64044336D01*
%TO.C,J2*%
X127321000Y-59750000D02*
X127321000Y-58420000D01*
X128651000Y-59750000D02*
X127321000Y-59750000D01*
X129921000Y-57090000D02*
X132521000Y-57090000D01*
X129921000Y-59750000D02*
X129921000Y-57090000D01*
X129921000Y-59750000D02*
X132521000Y-59750000D01*
X132521000Y-59750000D02*
X132521000Y-57090000D01*
%TO.C,J5*%
X129226000Y-65363400D02*
X129226000Y-64033400D01*
X130556000Y-65363400D02*
X129226000Y-65363400D01*
X131826000Y-62703400D02*
X136966000Y-62703400D01*
X131826000Y-65363400D02*
X131826000Y-62703400D01*
X131826000Y-65363400D02*
X136966000Y-65363400D01*
X136966000Y-65363400D02*
X136966000Y-62703400D01*
%TD*%
M02*
