M48
; DRILL file {KiCad 8.0.6} date 2025-01-01T08:23:23-0500
; FORMAT={-:-/ absolute / inch / decimal}
; #@! TF.CreationDate,2025-01-01T08:23:23-05:00
; #@! TF.GenerationSoftware,Kicad,Pcbnew,8.0.6
; #@! TF.FileFunction,Plated,1,2,PTH
FMAT,2
INCH
; #@! TA.AperFunction,Plated,PTH,ViaDrill
T1C0.0118
; #@! TA.AperFunction,Plated,PTH,ComponentDrill
T2C0.0236
; #@! TA.AperFunction,Plated,PTH,ComponentDrill
T3C0.0394
; #@! TA.AperFunction,Plated,PTH,ComponentDrill
T4C0.0430
; #@! TA.AperFunction,Plated,PTH,ComponentDrill
T5C0.2559
%
G90
G05
T1
X4.571Y-2.605
X4.779Y-2.609
X4.91Y-3.1
X4.921Y-2.798
X5.089Y-2.637
X5.3055Y-2.7847
X5.541Y-2.623
X5.65Y-2.25
X5.65Y-2.35
X5.65Y-2.45
X5.65Y-2.55
X5.65Y-2.65
X5.65Y-2.75
X5.65Y-2.85
X5.65Y-2.95
X5.65Y-3.4
X5.75Y-2.25
X5.75Y-2.75
X5.75Y-2.85
X5.75Y-2.95
X5.75Y-3.4
X5.85Y-2.25
X5.85Y-2.85
X5.85Y-2.95
X5.85Y-3.4
X5.95Y-2.85
X5.95Y-2.95
X5.95Y-3.4
X6.05Y-2.25
X6.15Y-2.25
X6.15Y-2.75
X6.15Y-2.85
X6.15Y-2.95
X6.15Y-3.4
X6.25Y-2.25
X6.25Y-2.35
X6.25Y-2.45
X6.25Y-2.55
X6.25Y-2.65
X6.25Y-2.75
X6.25Y-2.85
X6.25Y-2.95
X6.25Y-3.4
X6.35Y-2.85
X6.35Y-2.95
X6.35Y-3.4
X6.4Y-2.25
X6.4Y-2.35
X6.4Y-2.65
X6.4Y-2.75
X6.45Y-2.85
X6.45Y-2.95
X6.45Y-3.4
X6.5Y-2.25
X6.5Y-2.75
X6.55Y-2.85
X6.55Y-2.95
X6.55Y-3.4
X6.65Y-2.85
X6.65Y-2.95
X6.65Y-3.05
X6.75Y-2.25
X6.75Y-2.85
X6.75Y-2.95
X6.75Y-3.05
X6.85Y-2.25
X6.85Y-2.75
X6.85Y-2.85
X6.85Y-2.95
X6.85Y-3.05
X6.95Y-2.25
X6.95Y-2.35
X6.95Y-2.45
X6.95Y-2.55
X6.95Y-2.65
X6.95Y-2.75
X6.95Y-2.85
X6.95Y-2.95
X6.95Y-3.05
T2
X5.7524Y-2.5143
X5.8086Y-2.3786
X5.8086Y-2.65
X5.9443Y-2.3224
X5.9443Y-2.7062
X6.08Y-2.3786
X6.08Y-2.65
X6.1362Y-2.5143
X6.4624Y-2.5143
X6.5186Y-2.3786
X6.5186Y-2.65
X6.6543Y-2.3224
X6.6543Y-2.7062
X6.79Y-2.3786
X6.79Y-2.65
X6.8462Y-2.5143
T3
X4.685Y-2.303
X4.6994Y-2.52
X4.705Y-2.72
X4.785Y-2.303
X4.7994Y-2.52
X4.805Y-2.72
X4.8994Y-2.52
X4.905Y-2.72
X5.005Y-2.72
X5.065Y-2.3
X5.105Y-2.72
X5.14Y-2.521
X5.165Y-2.3
X5.205Y-2.72
X5.24Y-2.521
X5.305Y-2.72
X5.34Y-2.521
X5.38Y-2.3
X5.405Y-2.72
X5.48Y-2.3
T4
X5.0289Y-3.0228
X5.0289Y-3.1228
X5.0289Y-3.2228
X5.0289Y-3.3228
X5.1289Y-3.0228
X5.1289Y-3.1228
X5.1289Y-3.2228
X5.1289Y-3.3228
X5.2289Y-3.0228
X5.2289Y-3.1228
X5.2289Y-3.2228
X5.2289Y-3.3228
X5.3289Y-3.0228
X5.3289Y-3.1228
X5.3289Y-3.2228
X5.3289Y-3.3228
X5.4289Y-3.0228
X5.4289Y-3.1228
X5.4289Y-3.2228
X5.4289Y-3.3228
X5.5289Y-3.0228
X5.5289Y-3.1228
X5.5289Y-3.2228
X5.5289Y-3.3228
X5.6539Y-3.0228
X5.6539Y-3.1228
X5.6539Y-3.2228
X5.6539Y-3.3228
X5.7539Y-3.0228
X5.7539Y-3.1228
X5.7539Y-3.2228
X5.7539Y-3.3228
X5.9039Y-3.0228
X5.9039Y-3.1228
X5.9039Y-3.2228
X5.9039Y-3.3228
X6.0039Y-3.0228
X6.0039Y-3.1228
X6.0039Y-3.2228
X6.0039Y-3.3228
X6.1539Y-3.0228
X6.1539Y-3.1228
X6.1539Y-3.2228
X6.1539Y-3.3228
X6.2539Y-3.0228
X6.2539Y-3.1228
X6.2539Y-3.2228
X6.2539Y-3.3228
X6.4039Y-3.0228
X6.4039Y-3.1228
X6.4039Y-3.2228
X6.4039Y-3.3228
X6.5039Y-3.0228
X6.5039Y-3.1228
X6.5039Y-3.2228
X6.5039Y-3.3228
T5
X5.9443Y-2.5143
X6.6543Y-2.5143
M30
