%TF.GenerationSoftware,KiCad,Pcbnew,8.0.6*%
%TF.CreationDate,2025-01-01T08:23:18-05:00*%
%TF.ProjectId,ge-psu,67652d70-7375-42e6-9b69-6361645f7063,rev?*%
%TF.SameCoordinates,Original*%
%TF.FileFunction,Copper,L2,Bot*%
%TF.FilePolarity,Positive*%
%FSLAX46Y46*%
G04 Gerber Fmt 4.6, Leading zero omitted, Abs format (unit mm)*
G04 Created by KiCad (PCBNEW 8.0.6) date 2025-01-01 08:23:18*
%MOMM*%
%LPD*%
G01*
G04 APERTURE LIST*
%TA.AperFunction,ComponentPad*%
%ADD10C,0.900000*%
%TD*%
%TA.AperFunction,ComponentPad*%
%ADD11C,13.000000*%
%TD*%
%TA.AperFunction,ComponentPad*%
%ADD12R,1.700000X1.700000*%
%TD*%
%TA.AperFunction,ComponentPad*%
%ADD13O,1.700000X1.700000*%
%TD*%
%TA.AperFunction,ComponentPad*%
%ADD14R,1.790700X1.790700*%
%TD*%
%TA.AperFunction,ComponentPad*%
%ADD15C,1.790700*%
%TD*%
%TA.AperFunction,ViaPad*%
%ADD16C,0.600000*%
%TD*%
%TA.AperFunction,Conductor*%
%ADD17C,0.250000*%
%TD*%
%TA.AperFunction,Conductor*%
%ADD18C,0.200000*%
%TD*%
G04 APERTURE END LIST*
D10*
%TO.P,H1,1,1*%
%TO.N,VPLUS*%
X164143854Y-63862854D03*
X165571708Y-60415708D03*
X165571708Y-67310000D03*
X169018854Y-58987854D03*
D11*
X169018854Y-63862854D03*
D10*
X169018854Y-68737854D03*
X172466000Y-60415708D03*
X172466000Y-67310000D03*
X173893854Y-63862854D03*
%TD*%
D12*
%TO.P,J7,1,Pin_1*%
%TO.N,ALERT0*%
X137287000Y-69088000D03*
D13*
%TO.P,J7,2,Pin_2*%
%TO.N,ALERT1*%
X134747000Y-69088000D03*
%TO.P,J7,3,Pin_3*%
%TO.N,PFW*%
X132207000Y-69088000D03*
%TO.P,J7,4,Pin_4*%
%TO.N,OTW*%
X129667000Y-69088000D03*
%TO.P,J7,5,Pin_5*%
%TO.N,Power_Cap*%
X127127000Y-69088000D03*
%TO.P,J7,6,Pin_6*%
%TO.N,RESET*%
X124587000Y-69088000D03*
%TO.P,J7,7,Pin_7*%
%TO.N,MOD_PRE*%
X122047000Y-69088000D03*
%TO.P,J7,8,Pin_8*%
%TO.N,Fault*%
X119507000Y-69088000D03*
%TD*%
D14*
%TO.P,J1,A1,A1*%
%TO.N,UNIT_ADDR*%
X140435000Y-84400000D03*
D15*
%TO.P,J1,A2,A2*%
%TO.N,unconnected-(J1-PadA2)*%
X137895000Y-84400000D03*
%TO.P,J1,A3,A3*%
%TO.N,LOGIC_GRD*%
X135355000Y-84400000D03*
%TO.P,J1,A4,A4*%
%TO.N,PFW*%
X132815000Y-84400000D03*
%TO.P,J1,A5,A5*%
%TO.N,SDA_0*%
X130275000Y-84400000D03*
%TO.P,J1,A6,A6*%
%TO.N,SCL_0*%
X127735000Y-84400000D03*
%TO.P,J1,B1,B1*%
%TO.N,8V_INT*%
X140435000Y-81860000D03*
%TO.P,J1,B2,B2*%
%TO.N,unconnected-(J1-PadB2)*%
X137895000Y-81860000D03*
%TO.P,J1,B3,B3*%
%TO.N,ALERT1*%
X135355000Y-81860000D03*
%TO.P,J1,B4,B4*%
%TO.N,ALERT0*%
X132815000Y-81860000D03*
%TO.P,J1,B5,B5*%
%TO.N,OTW*%
X130275000Y-81860000D03*
%TO.P,J1,B6,B6*%
%TO.N,MOD_PRE*%
X127735000Y-81860000D03*
%TO.P,J1,C1,C1*%
%TO.N,unconnected-(J1-PadC1)*%
X140435000Y-79320000D03*
%TO.P,J1,C2,C2*%
%TO.N,Ishare*%
X137895000Y-79320000D03*
%TO.P,J1,C3,C3*%
%TO.N,REMOTE_ON*%
X135355000Y-79320000D03*
%TO.P,J1,C4,C4*%
%TO.N,RESET*%
X132815000Y-79320000D03*
%TO.P,J1,C5,C5*%
%TO.N,Margin*%
X130275000Y-79320000D03*
%TO.P,J1,C6,C6*%
%TO.N,SCL_1*%
X127735000Y-79320000D03*
%TO.P,J1,D1,D1*%
%TO.N,SHELF_ADDR*%
X140435000Y-76780000D03*
%TO.P,J1,D2,D2*%
%TO.N,Interlock*%
X137895000Y-76780000D03*
%TO.P,J1,D3,D3*%
%TO.N,Power_Cap*%
X135355000Y-76780000D03*
%TO.P,J1,D4,D4*%
%TO.N,5V*%
X132815000Y-76780000D03*
%TO.P,J1,D5,D5*%
%TO.N,Fault*%
X130275000Y-76780000D03*
%TO.P,J1,D6,D6*%
%TO.N,SDA_1*%
X127735000Y-76780000D03*
%TO.P,J1,P1_1,P1_1*%
%TO.N,VPLUS*%
X165200000Y-76780000D03*
%TO.P,J1,P1_2,P1_2*%
X165200000Y-79320000D03*
%TO.P,J1,P1_3,P1_3*%
X165200000Y-81860000D03*
%TO.P,J1,P1_4,P1_4*%
X165200000Y-84400000D03*
%TO.P,J1,P1_5,P1_5*%
X162660000Y-76780000D03*
%TO.P,J1,P1_6,P1_6*%
X162660000Y-79320000D03*
%TO.P,J1,P1_7,P1_7*%
X162660000Y-81860000D03*
%TO.P,J1,P1_8,P1_8*%
X162660000Y-84400000D03*
%TO.P,J1,P2_1,P2_1*%
X158850000Y-76780000D03*
%TO.P,J1,P2_2,P2_2*%
X158850000Y-79320000D03*
%TO.P,J1,P2_3,P2_3*%
X158850000Y-81860000D03*
%TO.P,J1,P2_4,P2_4*%
X158850000Y-84400000D03*
%TO.P,J1,P2_5,P2_5*%
X156310000Y-76780000D03*
%TO.P,J1,P2_6,P2_6*%
X156310000Y-79320000D03*
%TO.P,J1,P2_7,P2_7*%
X156310000Y-81860000D03*
%TO.P,J1,P2_8,P2_8*%
X156310000Y-84400000D03*
%TO.P,J1,P3_1,P3_1*%
%TO.N,Interlock*%
X152500000Y-76780000D03*
%TO.P,J1,P3_2,P3_2*%
X152500000Y-79320000D03*
%TO.P,J1,P3_3,P3_3*%
X152500000Y-81860000D03*
%TO.P,J1,P3_4,P3_4*%
X152500000Y-84400000D03*
%TO.P,J1,P3_5,P3_5*%
X149960000Y-76780000D03*
%TO.P,J1,P3_6,P3_6*%
X149960000Y-79320000D03*
%TO.P,J1,P3_7,P3_7*%
X149960000Y-81860000D03*
%TO.P,J1,P3_8,P3_8*%
X149960000Y-84400000D03*
%TO.P,J1,P4_1,P4_1*%
X146150000Y-76780000D03*
%TO.P,J1,P4_2,P4_2*%
X146150000Y-79320000D03*
%TO.P,J1,P4_3,P4_3*%
X146150000Y-81860000D03*
%TO.P,J1,P4_4,P4_4*%
X146150000Y-84400000D03*
%TO.P,J1,P4_5,P4_5*%
X143610000Y-76780000D03*
%TO.P,J1,P4_6,P4_6*%
X143610000Y-79320000D03*
%TO.P,J1,P4_7,P4_7*%
X143610000Y-81860000D03*
%TO.P,J1,P4_8,P4_8*%
X143610000Y-84400000D03*
%TD*%
D12*
%TO.P,J3,1,Pin_1*%
%TO.N,Ishare*%
X136652000Y-58420000D03*
D13*
%TO.P,J3,2,Pin_2*%
%TO.N,Interlock*%
X139192000Y-58420000D03*
%TD*%
D12*
%TO.P,J4,1,Pin_1*%
%TO.N,LOGIC_GRD*%
X124445000Y-64008000D03*
D13*
%TO.P,J4,2,Pin_2*%
%TO.N,SDA_0*%
X121905000Y-64008000D03*
%TO.P,J4,3,Pin_3*%
%TO.N,SCL_0*%
X119365000Y-64008000D03*
%TD*%
D10*
%TO.P,H2,1,1*%
%TO.N,Interlock*%
X146109854Y-63862854D03*
X147537708Y-60415708D03*
X147537708Y-67310000D03*
X150984854Y-58987854D03*
D11*
X150984854Y-63862854D03*
D10*
X150984854Y-68737854D03*
X154432000Y-60415708D03*
X154432000Y-67310000D03*
X155859854Y-63862854D03*
%TD*%
D12*
%TO.P,J6,1,Pin_1*%
%TO.N,LOGIC_GRD*%
X118999000Y-58496200D03*
D13*
%TO.P,J6,2,Pin_2*%
%TO.N,5V*%
X121539000Y-58496200D03*
%TD*%
D12*
%TO.P,J2,1,Pin_1*%
%TO.N,REMOTE_ON*%
X128651000Y-58420000D03*
D13*
%TO.P,J2,2,Pin_2*%
%TO.N,LOGIC_GRD*%
X131191000Y-58420000D03*
%TD*%
D12*
%TO.P,J5,1,Pin_1*%
%TO.N,LOGIC_GRD*%
X130556000Y-64033400D03*
D13*
%TO.P,J5,2,Pin_2*%
%TO.N,SDA_1*%
X133096000Y-64033400D03*
%TO.P,J5,3,Pin_3*%
%TO.N,SCL_1*%
X135636000Y-64033400D03*
%TD*%
D16*
%TO.N,Interlock*%
X146050000Y-86360000D03*
X158750000Y-64770000D03*
X143510000Y-59690000D03*
X143510000Y-72390000D03*
X143510000Y-57150000D03*
X151130000Y-72390000D03*
X156210000Y-69850000D03*
X158750000Y-59690000D03*
X151130000Y-74930000D03*
X143510000Y-69850000D03*
X156210000Y-57150000D03*
X146050000Y-57150000D03*
X143510000Y-74930000D03*
X148590000Y-72390000D03*
X143510000Y-67310000D03*
X143510000Y-64770000D03*
X148590000Y-74930000D03*
X148590000Y-86360000D03*
X146050000Y-74930000D03*
X153670000Y-57150000D03*
X143510000Y-62230000D03*
X143510000Y-86360000D03*
X158750000Y-62230000D03*
X158750000Y-67310000D03*
X158750000Y-57150000D03*
X158750000Y-69850000D03*
X148590000Y-57150000D03*
X146050000Y-69850000D03*
X151130000Y-86360000D03*
X140741400Y-66624200D03*
X146050000Y-72390000D03*
%TO.N,Power_Cap*%
X134759650Y-70731467D03*
%TO.N,VPLUS*%
X176530000Y-72390000D03*
X173990000Y-69850000D03*
X156210000Y-86360000D03*
X176530000Y-64770000D03*
X171450000Y-77470000D03*
X161290000Y-72390000D03*
X173990000Y-57150000D03*
X173990000Y-74930000D03*
X173990000Y-77470000D03*
X176530000Y-59690000D03*
X171450000Y-72390000D03*
X163830000Y-72390000D03*
X161290000Y-74930000D03*
X161290000Y-86360000D03*
X162560000Y-57150000D03*
X156210000Y-72390000D03*
X176530000Y-74930000D03*
X163830000Y-74930000D03*
X176530000Y-69850000D03*
X162560000Y-69850000D03*
X176530000Y-77470000D03*
X176530000Y-62230000D03*
X162560000Y-67310000D03*
X166370000Y-72390000D03*
X166370000Y-86360000D03*
X168910000Y-72390000D03*
X158750000Y-86360000D03*
X176530000Y-67310000D03*
X162560000Y-59690000D03*
X156210000Y-74930000D03*
X173990000Y-72390000D03*
X158750000Y-74930000D03*
X176530000Y-57150000D03*
X166370000Y-74930000D03*
X171450000Y-57150000D03*
X165100000Y-69850000D03*
X158750000Y-72390000D03*
X168910000Y-77470000D03*
X168910000Y-74930000D03*
X165100000Y-57150000D03*
X171450000Y-74930000D03*
X163830000Y-86360000D03*
%TO.N,Fault*%
X121386600Y-66268600D03*
X124993400Y-71069200D03*
%TO.N,Margin*%
X116103400Y-66167000D03*
%TO.N,SDA_1*%
X129260600Y-66979800D03*
%TO.N,MOD_PRE*%
X124714000Y-78740000D03*
%TD*%
D17*
%TO.N,Interlock*%
X142824200Y-66624200D02*
X143510000Y-67310000D01*
X137895000Y-76780000D02*
X140741400Y-73933600D01*
X140741400Y-66624200D02*
X142824200Y-66624200D01*
X143764000Y-58420000D02*
X144145000Y-58039000D01*
X140741400Y-73933600D02*
X140741400Y-66624200D01*
X139192000Y-58420000D02*
X143764000Y-58420000D01*
%TO.N,Power_Cap*%
X127127000Y-69088000D02*
X128770467Y-70731467D01*
X128770467Y-70731467D02*
X134759650Y-70731467D01*
%TO.N,Fault*%
X130275000Y-76350800D02*
X130275000Y-76780000D01*
X119507000Y-68148200D02*
X121386600Y-66268600D01*
X124993400Y-71069200D02*
X130275000Y-76350800D01*
X119507000Y-69088000D02*
X119507000Y-68148200D01*
%TO.N,Margin*%
X116052600Y-66217800D02*
X116103400Y-66167000D01*
X116052600Y-68173600D02*
X116052600Y-66217800D01*
X130275000Y-79320000D02*
X129034600Y-78079600D01*
X129034600Y-78079600D02*
X125958600Y-78079600D01*
X125958600Y-78079600D02*
X116052600Y-68173600D01*
%TO.N,SHELF_ADDR*%
X140441200Y-76773800D02*
X140435000Y-76780000D01*
%TO.N,SDA_1*%
X129260600Y-66979800D02*
X130251200Y-66979800D01*
X130251200Y-66979800D02*
X133223000Y-64008000D01*
X133085299Y-64008000D02*
X133223000Y-64008000D01*
%TO.N,RESET*%
X124587000Y-69088000D02*
X131546600Y-76047600D01*
X131546600Y-76047600D02*
X131546600Y-78051600D01*
X131546600Y-78051600D02*
X132815000Y-79320000D01*
%TO.N,SCL_1*%
X129006600Y-80591600D02*
X129006600Y-82372200D01*
X129006600Y-82372200D02*
X129768600Y-83134200D01*
X136626600Y-82423000D02*
X136626600Y-74166400D01*
X129768600Y-83134200D02*
X135915400Y-83134200D01*
X135915400Y-83134200D02*
X136626600Y-82423000D01*
X127735000Y-79320000D02*
X129006600Y-80591600D01*
X136626600Y-74166400D02*
X138462000Y-72331000D01*
X138462000Y-72331000D02*
X138462000Y-66707000D01*
X138462000Y-66707000D02*
X135763000Y-64008000D01*
%TO.N,ALERT0*%
X134086600Y-72288400D02*
X134086600Y-80588400D01*
X137287000Y-69088000D02*
X134086600Y-72288400D01*
X134086600Y-80588400D02*
X132815000Y-81860000D01*
%TO.N,LOGIC_GRD*%
X131191000Y-63500000D02*
X130683000Y-64008000D01*
D18*
X124445000Y-63993000D02*
X124445000Y-64008000D01*
X118999000Y-58547000D02*
X124445000Y-63993000D01*
D17*
X131191000Y-58420000D02*
X131191000Y-63500000D01*
X130683000Y-64008000D02*
X124587000Y-64008000D01*
%TO.N,MOD_PRE*%
X124714000Y-78740000D02*
X124714000Y-78839000D01*
X124714000Y-78839000D02*
X127735000Y-81860000D01*
%TD*%
%TA.AperFunction,Conductor*%
%TO.N,VPLUS*%
G36*
X177489039Y-55391685D02*
G01*
X177534794Y-55444489D01*
X177546000Y-55496000D01*
X177546000Y-78108000D01*
X177526315Y-78175039D01*
X177473511Y-78220794D01*
X177422000Y-78232000D01*
X167894000Y-78232000D01*
X167894000Y-87760000D01*
X167874315Y-87827039D01*
X167821511Y-87872794D01*
X167770000Y-87884000D01*
X155318000Y-87884000D01*
X155250961Y-87864315D01*
X155205206Y-87811511D01*
X155194000Y-87760000D01*
X155194000Y-72107600D01*
X155213685Y-72040561D01*
X155266489Y-71994806D01*
X155318000Y-71983600D01*
X161036000Y-71983600D01*
X161036000Y-55496000D01*
X161055685Y-55428961D01*
X161108489Y-55383206D01*
X161160000Y-55372000D01*
X177422000Y-55372000D01*
X177489039Y-55391685D01*
G37*
%TD.AperFunction*%
%TD*%
%TA.AperFunction,Conductor*%
%TO.N,Interlock*%
G36*
X159455039Y-55391685D02*
G01*
X159500794Y-55444489D01*
X159512000Y-55496000D01*
X159512000Y-70996000D01*
X159492315Y-71063039D01*
X159439511Y-71108794D01*
X159388000Y-71120000D01*
X153670000Y-71120000D01*
X153670000Y-55372000D01*
X159388000Y-55372000D01*
X159455039Y-55391685D01*
G37*
%TD.AperFunction*%
%TD*%
%TA.AperFunction,Conductor*%
%TO.N,Interlock*%
G36*
X153670000Y-71120000D02*
G01*
X153670000Y-87760000D01*
X153650315Y-87827039D01*
X153597511Y-87872794D01*
X153546000Y-87884000D01*
X142618000Y-87884000D01*
X142550961Y-87864315D01*
X142505206Y-87811511D01*
X142494000Y-87760000D01*
X142494000Y-55496000D01*
X142513685Y-55428961D01*
X142566489Y-55383206D01*
X142618000Y-55372000D01*
X153670000Y-55372000D01*
X153670000Y-71120000D01*
G37*
%TD.AperFunction*%
%TD*%
M02*
